<mxfile host="Electron" modified="2024-07-18T13:49:26.937Z" agent="Mozilla/5.0 (Windows NT 10.0; Win64; x64) AppleWebKit/537.36 (KHTML, like Gecko) draw.io/22.1.2 Chrome/114.0.5735.289 Electron/25.9.4 Safari/537.36" etag="9howhQ2WxscIK2vuK7wp" version="22.1.2" type="device">
  <diagram name="testing" id="SjJSr3joZrBzZynHDioF">
    <mxGraphModel dx="1434" dy="1004" grid="1" gridSize="10" guides="1" tooltips="1" connect="1" arrows="1" fold="1" page="1" pageScale="1" pageWidth="1169" pageHeight="827" math="1" shadow="0">
      <root>
        <mxCell id="0" />
        <mxCell id="1" parent="0" />
        <mxCell id="AyjHzDarZE1mUyMi7w7F-1" value="" style="shape=line;strokeWidth=12.5;strokeColor=#7F00FF;opacity=80;" vertex="1" parent="1">
          <mxGeometry x="457" y="366" width="78" height="18" as="geometry" />
        </mxCell>
        <mxCell id="AyjHzDarZE1mUyMi7w7F-26" style="edgeStyle=entityRelationEdgeStyle;rounded=1;orthogonalLoop=1;jettySize=auto;html=1;entryX=0;entryY=0.5;entryDx=0;entryDy=0;strokeColor=#7F00FF;opacity=80;exitX=1;exitY=0.5;exitDx=0;exitDy=0;" edge="1" parent="1" source="AyjHzDarZE1mUyMi7w7F-2" target="AyjHzDarZE1mUyMi7w7F-25">
          <mxGeometry relative="1" as="geometry" />
        </mxCell>
        <mxCell id="AyjHzDarZE1mUyMi7w7F-28" value="catch" style="edgeLabel;html=1;align=center;verticalAlign=middle;resizable=0;points=[];" vertex="1" connectable="0" parent="AyjHzDarZE1mUyMi7w7F-26">
          <mxGeometry x="-0.1182" y="-1" relative="1" as="geometry">
            <mxPoint as="offset" />
          </mxGeometry>
        </mxCell>
        <mxCell id="AyjHzDarZE1mUyMi7w7F-2" value="Parallel Evaluation Container:&#xa;Testing via Test datasets.Dataset" style="rounded=1;absoluteArcSize=1;arcSize=14;whiteSpace=wrap;strokeWidth=2;strokeColor=#7F00FF;fontFamily=Asap;fontSource=https%3A%2F%2Ffonts.googleapis.com%2Fcss%3Ffamily%3DAsap;fontSize=11;opacity=80;" vertex="1" parent="1">
          <mxGeometry x="442.5" y="408" width="107" height="71" as="geometry" />
        </mxCell>
        <mxCell id="AyjHzDarZE1mUyMi7w7F-4" value="" style="ellipse;fillColor=strokeColor;strokeColor=#7F00FF;opacity=80;" vertex="1" parent="1">
          <mxGeometry x="458" y="150" width="14" height="14" as="geometry" />
        </mxCell>
        <mxCell id="AyjHzDarZE1mUyMi7w7F-6" value="" style="ellipse;fillColor=strokeColor;strokeColor=#7F00FF;opacity=80;" vertex="1" parent="1">
          <mxGeometry x="472" y="150" width="14" height="14" as="geometry" />
        </mxCell>
        <mxCell id="AyjHzDarZE1mUyMi7w7F-8" value="" style="ellipse;fillColor=strokeColor;strokeColor=#7F00FF;opacity=80;" vertex="1" parent="1">
          <mxGeometry x="486" y="150" width="14" height="14" as="geometry" />
        </mxCell>
        <mxCell id="AyjHzDarZE1mUyMi7w7F-9" value="" style="ellipse;shape=endState;fillColor=strokeColor;strokeColor=#7F00FF;opacity=80;" vertex="1" parent="1">
          <mxGeometry x="490" y="671" width="14" height="14" as="geometry" />
        </mxCell>
        <mxCell id="AyjHzDarZE1mUyMi7w7F-10" value="" style="curved=1;startArrow=none;;exitX=0.4967948717948718;exitY=0.9722222222222222;entryX=0.5011111111111111;entryY=-0.01;rounded=0;strokeColor=#7F00FF;fontFamily=Asap;fontSource=https%3A%2F%2Ffonts.googleapis.com%2Fcss%3Ffamily%3DAsap;endArrow=none;endFill=0;opacity=80;" edge="1" parent="1" source="AyjHzDarZE1mUyMi7w7F-1" target="AyjHzDarZE1mUyMi7w7F-2">
          <mxGeometry relative="1" as="geometry">
            <Array as="points" />
          </mxGeometry>
        </mxCell>
        <mxCell id="AyjHzDarZE1mUyMi7w7F-11" value="" style="curved=1;startArrow=none;;exitX=0.5;exitY=1;entryX=0.37422839506172867;entryY=0;rounded=0;strokeColor=#7F00FF;opacity=80;" edge="1" parent="1" source="AyjHzDarZE1mUyMi7w7F-4" target="AyjHzDarZE1mUyMi7w7F-1">
          <mxGeometry relative="1" as="geometry">
            <Array as="points">
              <mxPoint x="352" y="274" />
              <mxPoint x="555" y="299" />
            </Array>
          </mxGeometry>
        </mxCell>
        <mxCell id="AyjHzDarZE1mUyMi7w7F-21" value="T5&lt;br&gt;MODEL" style="edgeLabel;html=1;align=center;verticalAlign=middle;resizable=0;points=[];" vertex="1" connectable="0" parent="AyjHzDarZE1mUyMi7w7F-11">
          <mxGeometry x="-0.0969" y="23" relative="1" as="geometry">
            <mxPoint as="offset" />
          </mxGeometry>
        </mxCell>
        <mxCell id="AyjHzDarZE1mUyMi7w7F-12" value="" style="curved=1;startArrow=none;;exitX=0.5;exitY=1;entryX=0.4967948717948718;entryY=0;rounded=0;strokeColor=#7F00FF;opacity=80;" edge="1" parent="1" source="AyjHzDarZE1mUyMi7w7F-6" target="AyjHzDarZE1mUyMi7w7F-1">
          <mxGeometry relative="1" as="geometry">
            <Array as="points">
              <mxPoint x="456" y="274" />
              <mxPoint x="592" y="299" />
            </Array>
          </mxGeometry>
        </mxCell>
        <mxCell id="AyjHzDarZE1mUyMi7w7F-19" value="PEGASUS&lt;br&gt;MODEL" style="edgeLabel;html=1;align=center;verticalAlign=middle;resizable=0;points=[];" vertex="1" connectable="0" parent="AyjHzDarZE1mUyMi7w7F-12">
          <mxGeometry x="-0.5992" y="17" relative="1" as="geometry">
            <mxPoint y="-24" as="offset" />
          </mxGeometry>
        </mxCell>
        <mxCell id="AyjHzDarZE1mUyMi7w7F-13" value="" style="curved=1;startArrow=none;;exitX=0.5;exitY=1;rounded=0;strokeColor=#7F00FF;exitDx=0;exitDy=0;opacity=80;" edge="1" parent="1" source="AyjHzDarZE1mUyMi7w7F-8" target="AyjHzDarZE1mUyMi7w7F-1">
          <mxGeometry relative="1" as="geometry">
            <Array as="points">
              <mxPoint x="619" y="299" />
            </Array>
            <mxPoint x="518" y="164" as="sourcePoint" />
            <mxPoint x="453.45833333333326" y="366" as="targetPoint" />
          </mxGeometry>
        </mxCell>
        <mxCell id="AyjHzDarZE1mUyMi7w7F-18" value="BART&lt;br&gt;MODEL" style="edgeLabel;html=1;align=center;verticalAlign=middle;resizable=0;points=[];" vertex="1" connectable="0" parent="AyjHzDarZE1mUyMi7w7F-13">
          <mxGeometry x="-0.4791" y="-23" relative="1" as="geometry">
            <mxPoint x="16" as="offset" />
          </mxGeometry>
        </mxCell>
        <mxCell id="AyjHzDarZE1mUyMi7w7F-14" value="" style="curved=1;startArrow=none;;exitX=0.5011111111111111;exitY=0.99;entryX=0.48214285714285715;entryY=-0.03571428571428571;rounded=0;strokeColor=#7F00FF;opacity=80;" edge="1" parent="1" source="AyjHzDarZE1mUyMi7w7F-22" target="AyjHzDarZE1mUyMi7w7F-9">
          <mxGeometry relative="1" as="geometry">
            <Array as="points" />
          </mxGeometry>
        </mxCell>
        <mxCell id="AyjHzDarZE1mUyMi7w7F-15" value="&lt;font color=&quot;#ffffff&quot; data-font-src=&quot;https://fonts.googleapis.com/css?family=Asap&quot;&gt;&lt;br&gt;S3&lt;/font&gt;" style="sketch=0;outlineConnect=0;fontColor=#232F3E;gradientColor=none;strokeColor=#ffffff;fillColor=#7F00FF;dashed=0;verticalLabelPosition=middle;verticalAlign=middle;align=center;html=1;whiteSpace=wrap;fontSize=10;fontStyle=1;spacing=3;shape=mxgraph.aws4.productIcon;prIcon=mxgraph.aws4.s3;labelPosition=center;fontFamily=Asap;fontSource=https%3A%2F%2Ffonts.googleapis.com%2Fcss%3Ffamily%3DAsap;opacity=80;" vertex="1" parent="1">
          <mxGeometry x="439" y="70" width="80" height="80" as="geometry" />
        </mxCell>
        <mxCell id="AyjHzDarZE1mUyMi7w7F-24" value="" style="curved=1;startArrow=none;;exitX=0.5011111111111111;exitY=0.99;entryX=0.48214285714285715;entryY=-0.03571428571428571;rounded=0;strokeColor=#7F00FF;opacity=80;" edge="1" parent="1" source="AyjHzDarZE1mUyMi7w7F-2" target="AyjHzDarZE1mUyMi7w7F-22">
          <mxGeometry relative="1" as="geometry">
            <Array as="points" />
            <mxPoint x="496" y="479" as="sourcePoint" />
            <mxPoint x="496" y="622" as="targetPoint" />
          </mxGeometry>
        </mxCell>
        <mxCell id="AyjHzDarZE1mUyMi7w7F-29" value="results" style="edgeLabel;html=1;align=center;verticalAlign=middle;resizable=0;points=[];" vertex="1" connectable="0" parent="AyjHzDarZE1mUyMi7w7F-24">
          <mxGeometry x="-0.0848" relative="1" as="geometry">
            <mxPoint as="offset" />
          </mxGeometry>
        </mxCell>
        <mxCell id="AyjHzDarZE1mUyMi7w7F-22" value="&lt;font color=&quot;#ffffff&quot; data-font-src=&quot;https://fonts.googleapis.com/css?family=Asap&quot;&gt;&lt;br&gt;S3&lt;/font&gt;" style="sketch=0;outlineConnect=0;fontColor=#232F3E;gradientColor=none;strokeColor=#ffffff;fillColor=#7F00FF;dashed=0;verticalLabelPosition=middle;verticalAlign=middle;align=center;html=1;whiteSpace=wrap;fontSize=10;fontStyle=1;spacing=3;shape=mxgraph.aws4.productIcon;prIcon=mxgraph.aws4.s3;labelPosition=center;fontFamily=Asap;fontSource=https%3A%2F%2Ffonts.googleapis.com%2Fcss%3Ffamily%3DAsap;opacity=80;" vertex="1" parent="1">
          <mxGeometry x="457" y="538" width="80" height="80" as="geometry" />
        </mxCell>
        <mxCell id="AyjHzDarZE1mUyMi7w7F-27" style="edgeStyle=entityRelationEdgeStyle;rounded=1;orthogonalLoop=1;jettySize=auto;html=1;entryX=1;entryY=0.5;entryDx=0;entryDy=0;strokeColor=#7F00FF;opacity=80;exitX=0.5;exitY=1;exitDx=0;exitDy=0;" edge="1" parent="1" source="AyjHzDarZE1mUyMi7w7F-25" target="AyjHzDarZE1mUyMi7w7F-9">
          <mxGeometry relative="1" as="geometry">
            <Array as="points">
              <mxPoint x="650" y="660" />
            </Array>
          </mxGeometry>
        </mxCell>
        <mxCell id="AyjHzDarZE1mUyMi7w7F-25" value="Failure&#xa;Notification" style="rounded=1;absoluteArcSize=1;arcSize=14;whiteSpace=wrap;strokeWidth=2;strokeColor=#7F00FF;fontFamily=Asap;fontSource=https%3A%2F%2Ffonts.googleapis.com%2Fcss%3Ffamily%3DAsap;fontSize=11;opacity=80;" vertex="1" parent="1">
          <mxGeometry x="670" y="495" width="80" height="40" as="geometry" />
        </mxCell>
      </root>
    </mxGraphModel>
  </diagram>
</mxfile>
